<?xml version="1.0" encoding="utf-8"?>
<!-- Generator: Adobe Illustrator 28.0.0, SVG Export Plug-In . SVG Version: 6.00 Build 0)  -->
<svg version="1.1" id="Layer_1" xmlns="http://www.w3.org/2000/svg" xmlns:xlink="http://www.w3.org/1999/xlink" x="0px" y="0px"
	 viewBox="0 0 219.5 249" style="enable-background:new 0 0 219.5 249;" xml:space="preserve">
<style type="text/css">
	.st0{fill:#FAFAFA;}
</style>
<path class="st0" d="M145.2,177.6c34.3-3.8,70.3-16.8,70.3-76c0-16.8-6-30.6-15.9-41.4c1.6-3.9-3.3-43.6-18.8-51.1
	c0,0-12.3,4.7-25,26.1c-12.3-3.4-25.5-5.1-38.6-5.2c-13.1,0.1-26.3,1.8-38.6,5.2C66.3,12.3,50.5,9.1,50.5,9.1
	C34.6,25.7,33.2,56.3,34.8,60.2C25,71,19,84.8,19,101.6c0,59,36,72.2,70.2,76.1c-4.4,3.8-8.4,10.6-9.8,20.6
	c-8.8,3.9-31.1,10.7-44.8-12.8c0,0-8.1-14.8-23.6-15.9c0,0-15-0.2-1.1,9.4c0,0,10.1,4.7,17.1,22.5c0,0,9,27.5,51.9,18.2
	c0.1,11.2,0.2,21.8,0.2,26.8h76.4c0-6.6,0.2-21.9,0.2-40.4C155.7,191.7,150.7,182.4,145.2,177.6z M21.6,176.7
	c-0.3,0.8-1.5,1-2.6,0.5s-1.7-1.5-1.4-2.3c0.3-0.8,1.5-1,2.7-0.5C21.3,174.9,21.9,176,21.6,176.7L21.6,176.7z M27.8,183.7
	L27.8,183.7c-0.7,0.7-2.2,0.4-3.1-0.7c-1-1.1-1.2-2.5-0.5-3.2c0.8-0.7,2.2-0.4,3.2,0.7S28.6,183,27.8,183.7z M33.9,192.6L33.9,192.6
	c-0.9,0.7-2.5,0-3.4-1.3c-0.9-1.4-0.9-3,0-3.7c1-0.7,2.5-0.1,3.4,1.3C34.8,190.3,34.8,191.9,33.9,192.6z M42.2,201.2L42.2,201.2
	c-0.8,0.9-2.6,0.7-4-0.6c-1.3-1.2-1.7-3-0.9-3.9c0.9-0.9,2.7-0.7,4,0.6C42.7,198.5,43.1,200.2,42.2,201.2z M53.7,206.1
	c-0.4,1.2-2.1,1.8-3.9,1.2c-1.7-0.5-2.9-1.9-2.5-3.2c0.4-1.2,2.1-1.8,3.9-1.2C52.9,203.5,54,204.9,53.7,206.1z M66.3,207.1
	c0,1.3-1.4,2.3-3.3,2.3c-1.8,0-3.3-1-3.4-2.2c0-1.3,1.4-2.3,3.3-2.4C64.8,204.8,66.3,205.8,66.3,207.1L66.3,207.1z M75.1,207.9
	c-1.8,0.3-3.4-0.4-3.7-1.7c-0.2-1.3,1.1-2.5,2.9-2.9c1.8-0.3,3.5,0.4,3.7,1.7l0,0C78.2,206.3,77,207.6,75.1,207.9z"/>
</svg>
