<?xml version="1.0" encoding="utf-8"?>
<!-- Generator: Adobe Illustrator 28.0.0, SVG Export Plug-In . SVG Version: 6.00 Build 0)  -->
<svg version="1.1" id="Layer_1" xmlns="http://www.w3.org/2000/svg" xmlns:xlink="http://www.w3.org/1999/xlink" x="0px" y="0px"
	 viewBox="0 0 1063.9 56.3" style="enable-background:new 0 0 1063.9 56.3;" xml:space="preserve">
<style type="text/css">
	.st0{fill:#FFFFFF;}
	.st1{enable-background:new    ;}
	.st2{fill:#FFFFFF;stroke:#FFFFFF;stroke-miterlimit:10;}
</style>
<path class="st0" d="M798,40.3c0,2.8-0.7,5.6-2.4,8c-1.7,2.3-3.8,4.2-6.9,5.6c-3.1,1.4-6.9,2.1-11.4,2.1c-3.8,0-7.3-0.5-10.9-1.4
	c-3.6-0.9-6.4-2.3-8.5-4l7.1-8.5c1.4,0.7,2.8,1.2,4.5,1.9c2.8,0.9,5.4,1.4,8.1,1.4c5,0,7.6-1.4,7.6-4c0-1.4-0.7-2.3-2.1-3.1
	c-1.4-0.7-3.8-1.4-6.9-2.1c-3.6-0.7-6.4-1.6-8.8-2.6c-2.4-1-4.3-2.4-6.2-4.2c-1.7-1.9-2.6-4.7-2.6-8c0-3.1,0.7-5.6,2.4-8
	c1.7-2.4,3.8-4.2,6.9-5.6c3.1-1.4,6.9-2.1,11.4-2.1c3.1,0,6.2,0.5,9,1.2c3.1,0.7,5.7,1.9,7.8,3.1l-7.3,8.7c-3.3-1.4-6.6-2.1-9.7-2.1
	c-2.6,0-4.5,0.5-5.7,1.2s-1.9,1.9-1.9,3.1c0,1.4,0.7,2.4,2.1,2.8c1.4,0.7,3.8,1.4,6.9,2.1c3,0.6,5.9,1.5,8.8,2.6
	c2.4,0.9,4.3,2.4,6.2,4.2C797.1,34.2,798,37,798,40.3L798,40.3z M1060,40.3c0,2.8-0.7,5.6-2.4,8c-1.7,2.4-3.8,4.2-6.9,5.6
	c-3.1,1.4-6.9,2.1-11.4,2.1c-3.8,0-7.3-0.5-10.9-1.4c-3.6-0.9-6.4-2.3-8.5-4l7.1-8.5c1.4,0.7,2.8,1.2,4.5,1.9
	c2.8,0.9,5.4,1.4,8.1,1.4c5,0,7.6-1.4,7.6-4c0-1.4-0.7-2.3-2.1-3.1c-1.4-0.7-3.8-1.4-6.9-2.1c-3-0.6-5.9-1.5-8.8-2.6
	c-2.4-0.9-4.3-2.4-6.2-4.2c-1.7-1.9-2.6-4.7-2.6-8c0-3.1,0.7-5.6,2.4-8c1.7-2.4,3.8-4.2,6.9-5.6s6.9-2.1,11.4-2.1
	c3.1,0,6.2,0.5,9,1.2c3.1,0.7,5.7,1.9,7.8,3.1l-7.3,8.7c-3.3-1.4-6.6-2.1-9.7-2.1c-2.6,0-4.5,0.5-5.7,1.2c-1.2,0.7-1.9,1.9-1.9,3.1
	c0,1.4,0.7,2.4,2.1,2.8c1.4,0.7,3.8,1.4,6.9,2.1c3,0.6,5.9,1.5,8.8,2.6c2.4,0.9,4.3,2.4,6.2,4.2C1059.3,34.2,1060,37,1060,40.3
	L1060,40.3z M479.9,24.3c0,3.8-0.9,6.8-2.6,9.4c-1.7,2.6-4,4.7-7.1,6.1c-3.1,1.4-6.9,2.1-10.9,2.1h-8.1v12.7H438V6h21.3
	c4.3,0,7.8,0.7,10.9,2.1c3.1,1.4,5.4,3.5,7.1,6.3C479.2,17.5,479.9,20.8,479.9,24.3z M466.6,24.3c0-2.4-0.7-4-2.1-5.2
	c-1.4-1.2-3.3-1.8-6.2-1.8H451v14.3h7.3c2.6,0,4.7-0.7,6.2-1.9S466.6,26.7,466.6,24.3z M522.5,44.5v10.6h-37.2V6.5h36.2v10.6h-23.2
	v8.2h18.5v10.3h-18.5v8.9H522.5z M572.7,6.5v48.7h-10.9l-20.6-25.9v25.9h-13V6.5h10.9l20.6,25.8V6.5H572.7z M656.8,44.1v10.8h-32.9
	V6.2h13.3v37.6h19.7v0.3H656.8z M713.7,55.1H700l-3.6-9.4h-19.7l-3.6,9.4h-13.5l20.6-48.6h13L713.7,55.1z M692.6,35.4l-5.9-15.5
	l-5.9,15.5H692.6z M755.1,40.3c0,2.8-0.7,5.6-2.4,8c-1.7,2.3-3.8,4.2-6.9,5.6c-3.1,1.4-6.9,2.1-11.4,2.1c-3.8,0-7.3-0.5-10.9-1.4
	c-3.6-0.9-6.4-2.3-8.5-4l7.1-8.5c1.4,0.7,2.8,1.2,4.5,1.9c2.8,0.9,5.4,1.4,8.1,1.4c5,0,7.6-1.4,7.6-4c0-1.4-0.7-2.3-2.1-3.1
	c-1.4-0.7-3.8-1.4-6.9-2.1c-3.6-0.7-6.4-1.6-8.8-2.6c-2.4-1-4.3-2.4-6.2-4.2c-1.7-1.9-2.6-4.7-2.6-8c0-3.1,0.7-5.6,2.4-8
	c1.7-2.4,3.8-4.2,6.9-5.6c3.1-1.4,6.9-2.1,11.4-2.1c3.1,0,6.2,0.5,9,1.2c3.1,0.7,5.4,1.9,7.8,3.1l-7.3,8.7c-3.3-1.4-6.6-2.1-9.7-2.1
	c-2.6,0-4.5,0.5-5.7,1.2s-1.9,1.9-1.9,3.1c0,1.4,0.7,2.4,2.1,2.8c1.4,0.7,3.8,1.4,6.9,2.1c3,0.6,5.9,1.5,8.8,2.6
	c2.4,0.9,4.3,2.4,6.2,4.2C754.2,34.2,755.1,37,755.1,40.3L755.1,40.3z M432.5,30.7c0,13.9-11.4,25.4-25.6,25.4
	c-5.7,0-10.7-1.9-14.9-4.9l8.5-10.1c1.9,1.2,4,1.9,6.4,1.9c6.6,0,12.1-5.4,12.1-12s-5.4-12-12.1-12c-2.4,0-4.5,0.7-6.4,1.9L392,10.7
	c4.3-3.1,9.5-4.9,14.9-4.9C421.1,5.5,432.5,16.8,432.5,30.7L432.5,30.7z M610.2,41l8.5,10.1c-4.3,3.1-9.5,4.9-14.9,4.9
	c-14,0-25.6-11.3-25.6-25.4c0-13.9,11.4-25.4,25.6-25.4c5.7,0,10.7,1.9,14.9,4.9l-8.5,10.2c-1.9-1.2-4-1.9-6.4-1.9
	c-6.6,0-12.1,5.4-12.1,12s5.4,12,12.1,12C606.1,42.9,608.3,42.2,610.2,41L610.2,41z M846.3,55.1l-10.4-15c3.1-1.4,5.2-3.5,6.9-6.1
	c1.7-2.6,2.6-5.9,2.6-9.4c0-3.8-0.9-6.8-2.6-9.6c-1.7-2.8-4-4.7-7.1-6.3c-3.1-1.4-6.9-2.1-10.9-2.1h-21.3v48.7h13V42.4h6.2l8.8,12.7
	H846.3z M816.5,17.3h7.6c2.6,0,4.7,0.7,6.2,1.9c1.5,1.2,2.1,3.1,2.1,5.2c0,2.4-0.7,4-2.1,5.2c-1.4,1.2-3.3,1.9-6.2,1.9h-7.6V17.3z
	 M875.9,5.5c14,0,25.6,11.3,25.6,25.4s-11.3,25.4-25.6,25.4c-14,0-25.6-11.3-25.6-25.4S861.7,5.5,875.9,5.5z M862.9,30.7
	c0,7.1,5.7,12.7,12.8,12.7s12.8-5.6,12.8-12.7S882.8,18,875.7,18C868.8,18,862.9,23.6,862.9,30.7z M930.9,5.5
	c14,0,25.6,11.3,25.6,25.4s-11.4,25.4-25.6,25.4c-14,0-25.6-11.3-25.6-25.4S916.9,5.5,930.9,5.5z M918.1,30.7
	c0,7.1,5.7,12.7,12.8,12.7s12.8-5.6,12.8-12.7S938,18,930.9,18S918.1,23.6,918.1,30.7z M988.5,37.5l-15.6-31H962v48.7h11.6V33.7
	l11.6,21.4h6.9l11.6-21.4v21.4h11.6V6.5h-10.9L988.5,37.5z"/>
<g class="st1">
	<path class="st2" d="M8.7,54.6V7.2H32c6,0,10.4,1.1,13.4,3.4c2.9,2.3,4.4,5.3,4.4,9c0,2.4-0.6,4.6-1.9,6.4c-1.2,1.8-3,3.3-5.2,4.3
		c-2.2,1.1-4.9,1.6-8,1.6l1.3-3.2c3.2,0,6,0.5,8.4,1.5c2.4,1,4.2,2.5,5.6,4.4c1.3,1.9,2,4.3,2,7c0,4.1-1.6,7.3-4.8,9.6
		c-3.2,2.3-7.8,3.4-13.9,3.4H8.7z M21.5,44.9h10.8c2.2,0,3.9-0.4,5-1.2c1.1-0.8,1.7-2,1.7-3.6s-0.6-2.8-1.7-3.6
		c-1.1-0.8-2.8-1.2-5-1.2H20.5V26h9.7c2.2,0,3.8-0.4,4.9-1.2c1.1-0.8,1.6-1.9,1.6-3.5c0-1.5-0.5-2.7-1.6-3.4
		c-1.1-0.7-2.7-1.1-4.9-1.1h-8.8V44.9z"/>
	<path class="st2" d="M81.4,55.5c-3.6,0-7-0.6-10.1-1.8c-3.1-1.2-5.8-2.9-8-5.2s-4-4.8-5.3-7.8s-1.9-6.2-1.9-9.8
		c0-3.6,0.6-6.8,1.9-9.8s3-5.6,5.3-7.8s4.9-4,8-5.2c3.1-1.2,6.4-1.8,10.1-1.8c3.7,0,7.1,0.6,10.1,1.8s5.7,2.9,8,5.2s4,4.8,5.3,7.8
		c1.3,3,1.9,6.2,1.9,9.8c0,3.6-0.6,6.8-1.9,9.8c-1.3,3-3,5.6-5.3,7.8c-2.3,2.2-4.9,3.9-8,5.1S85.1,55.5,81.4,55.5z M81.4,44.5
		c1.7,0,3.3-0.3,4.8-0.9c1.5-0.6,2.8-1.5,3.9-2.7c1.1-1.2,2-2.6,2.6-4.3c0.6-1.7,0.9-3.5,0.9-5.5c0-2.1-0.3-3.9-0.9-5.6
		c-0.6-1.6-1.5-3.1-2.6-4.3c-1.1-1.2-2.4-2.1-3.9-2.7c-1.5-0.6-3.1-0.9-4.8-0.9c-1.7,0-3.3,0.3-4.8,0.9c-1.5,0.6-2.8,1.5-3.9,2.7
		c-1.1,1.2-2,2.6-2.6,4.3c-0.6,1.6-0.9,3.5-0.9,5.6c0,2,0.3,3.9,0.9,5.5c0.6,1.7,1.5,3.1,2.6,4.3c1.1,1.2,2.4,2.1,3.9,2.7
		C78,44.1,79.6,44.5,81.4,44.5z"/>
	<path class="st2" d="M134.1,55.5c-6.7,0-12-1.9-15.7-5.8c-3.8-3.8-5.7-9.3-5.7-16.3V7.2h12.9v25.8c0,4.1,0.8,7,2.3,8.7
		c1.5,1.8,3.6,2.6,6.3,2.6s4.8-0.9,6.3-2.6c1.5-1.8,2.3-4.7,2.3-8.7V7.2h12.7v26.3c0,7-1.9,12.5-5.7,16.3
		C146.1,53.6,140.9,55.5,134.1,55.5z"/>
	<path class="st2" d="M172.9,54.6V17.9h-14V7.2h40.7v10.6h-13.9v36.7H172.9z"/>
	<path class="st2" d="M202,54.6v-8.4l26.8-33.1l1.6,4.7h-27.8V7.2h39.2v8.4L215,48.7l-1.6-4.7h29.3v10.6H202z"/>
	<path class="st2" d="M248.1,54.6V7.2H261v47.4H248.1z"/>
</g>
<g class="st1">
	<path class="st2" d="M311.4,54.6l16.2-22.1l-0.3,7.3l-15.5-21.9h13.9l8.7,12.9l-5.2,0.3l9.2-13.2h13.1L336,39.3v-7l16,22.3h-14.1
		l-9.1-13.8l5.2,0.7l-9.2,13.1H311.4z"/>
</g>
</svg>
